<?xml version="1.0" encoding="UTF-8" standalone="no"?>
<svg
   xmlns:dc="http://purl.org/dc/elements/1.1/"
   xmlns:cc="http://creativecommons.org/ns#"
   xmlns:rdf="http://www.w3.org/1999/02/22-rdf-syntax-ns#"
   xmlns:svg="http://www.w3.org/2000/svg"
   xmlns="http://www.w3.org/2000/svg"
   viewBox="0 0 1333.3333 1066.6667"
   height="1066.6667"
   width="1333.3333"
   xml:space="preserve"
   id="svg2"
   version="1.1"><metadata
     id="metadata8"><rdf:RDF><cc:Work
         rdf:about=""><dc:format>image/svg+xml</dc:format><dc:type
           rdf:resource="http://purl.org/dc/dcmitype/StillImage" /></cc:Work></rdf:RDF></metadata><defs
     id="defs6" /><g
     transform="matrix(1.3333333,0,0,-1.3333333,0,1066.6667)"
     id="g10"><g
       transform="scale(0.1)"
       id="g12"><path
         id="path14"
         style="fill:#211c1d;fill-opacity:1;fill-rule:nonzero;stroke:none"
         d="m 5352.78,5146.18 c 0,0 7.77,14.15 17.46,37.5 -14.05,4.89 -17.46,-37.5 -17.46,-37.5" /><path
         id="path16"
         style="fill:#211c1d;fill-opacity:1;fill-rule:nonzero;stroke:none"
         d="m 3110.51,5299.47 c 113.64,74.81 154.87,146.34 191.25,209.46 41.81,72.55 89.21,154.78 218.45,177.58 92.69,16.36 200.44,33.09 296.85,33.09 14.46,0 36.88,-0.02 63.1,-2.38 C 4202.09,5927.6 4586.73,6050 5000,6050 c 413.28,0 797.91,-122.4 1119.85,-332.78 26.22,2.36 48.64,2.38 63.09,2.38 96.41,0 204.16,-16.73 296.86,-33.09 129.23,-22.8 176.64,-105.03 218.45,-177.58 36.38,-63.12 77.61,-134.65 191.24,-209.46 52.99,-34.87 100.27,-80.27 142.44,-131.97 -404.55,702.57 -1162.99,1175.58 -2031.93,1175.58 -868.94,0 -1627.38,-473.01 -2031.93,-1175.58 42.17,51.7 89.45,97.1 142.44,131.97" /><path
         id="path18"
         style="fill:#211c1d;fill-opacity:1;fill-rule:nonzero;stroke:none"
         d="m 7317.73,4345.03 c -23.78,-50.28 -66.36,-84.31 -85.04,-99.23 -47.61,-38.05 -112.14,-76.18 -186.68,-119.3 2.54,-41.85 3.99,-84 3.99,-126.5 0,-1132.18 -917.81,-2050 -2050,-2050 -1132.18,0 -2050,917.82 -2050,2050 0,42.5 1.46,84.65 4,126.5 -74.55,43.12 -139.07,81.25 -186.69,119.3 -18.67,14.92 -61.25,48.95 -85.04,99.24 -16.63,-112.62 -25.35,-227.81 -25.35,-345.04 0,-1294.05 1049.04,-2343.08 2343.08,-2343.08 1294.05,0 2343.09,1049.03 2343.09,2343.08 0,117.23 -8.73,232.42 -25.36,345.03" /><path
         id="path20"
         style="fill:#211c1d;fill-opacity:1;fill-rule:nonzero;stroke:none"
         d="m 7233.18,4431.89 c -23.25,116.28 -136.21,611.3 -398.67,784.06 -262.45,172.75 -202.65,342.19 -372.09,372.09 -169.43,29.9 -418.6,66.45 -471.76,-36.54 -53.16,-102.99 -93.02,-295.68 -66.44,-328.91 26.57,-33.22 182.72,-36.54 282.39,0 99.66,36.55 176.08,66.45 269.1,-9.96 93.02,-76.42 29.9,-558.14 196.02,-691.03 0,0 -112.96,39.86 -139.54,86.37 -26.58,46.52 -279.06,126.25 -425.25,-36.54 -146.18,-162.79 -245.85,-269.1 -245.85,-269.1 l 176.08,269.1 c 0,0 -79.73,126.24 -279.06,39.87 -199.34,-86.38 -245.85,-162.79 -338.88,-142.86 0,0 -0.67,-0.54 -1.76,-1.4 -74.68,38.78 -132.09,117.9 -125.73,194.09 6.64,79.73 49.83,182.72 102.99,242.53 53.15,59.8 79.72,202.65 59.79,245.84 -19.93,43.19 -49.83,19.94 -49.83,19.94 73.09,272.42 -56.48,382.06 -56.48,382.06 63.13,13.29 89.7,166.11 89.7,166.11 -86.38,-116.28 -461.8,3.32 -601.33,-26.58 -139.53,-29.9 -156.14,-139.53 -156.14,-139.53 -136.81,-109.83 -82.93,-290.22 -50.68,-367.82 -5.62,-1.96 -12.92,-11.42 -22.42,-34.18 -33.21,-79.73 93.03,-285.71 119.6,-428.57 26.59,-142.86 -53.14,-232.56 -146.17,-252.49 -93.03,-19.93 -139.54,56.48 -338.88,142.86 -199.33,86.37 -279.06,-39.87 -279.06,-39.87 l 176.08,-269.1 c 0,0 -99.67,106.31 -245.84,269.1 -146.19,162.79 -398.68,83.06 -425.26,36.54 -26.58,-46.51 -139.53,-86.37 -139.53,-86.37 166.11,132.89 102.99,614.61 196.01,691.03 93.02,76.41 169.44,46.51 269.11,9.96 99.67,-36.54 255.81,-33.22 282.39,0 26.57,33.23 -13.29,225.92 -66.45,328.91 -53.16,102.99 -302.33,66.44 -471.76,36.54 -169.44,-29.9 -109.63,-199.34 -372.09,-372.09 -262.46,-172.76 -375.42,-667.78 -398.67,-784.06 -23.27,-116.27 269.1,-209.3 578.07,-431.89 308.97,-222.59 574.75,-179.4 574.75,-179.4 v 159.47 c 0,0 53.15,-229.24 139.53,-461.8 86.39,-232.56 275.75,-418.6 275.75,-418.6 76.42,102.99 136.21,338.87 136.21,338.87 C 4434.59,3142.86 4212,2571.43 4212,2571.43 c 368.54,-40.26 737.02,-256.59 785.3,-285.75 v -3.29 c 0,0 0.93,0.58 2.7,1.65 1.78,-1.07 2.7,-1.65 2.7,-1.65 v 3.29 c 48.28,29.16 416.76,245.49 785.3,285.75 0,0 -222.59,571.43 -259.13,867.11 0,0 59.79,-235.88 136.21,-338.87 0,0 189.37,186.04 275.75,418.6 86.38,232.56 139.53,461.8 139.53,461.8 V 3820.6 c 0,0 265.78,-43.19 574.75,179.4 308.97,222.59 601.34,315.62 578.07,431.89" /></g></g></svg>